<svg width="620" height="151" viewBox="0 0 620 151" fill="none" xmlns="http://www.w3.org/2000/svg">
<path d="M49.5428 30.8101C74.0207 16.6778 105.319 25.0629 119.452 49.5423C133.585 74.0216 125.197 105.319 100.72 119.452C76.2424 133.584 44.9425 125.196 30.8106 100.719C16.6788 76.2424 25.0643 44.9427 49.5428 30.8101Z" fill="white"/>
<path d="M27.4997 102.631C31.2117 109.061 36.0736 114.571 41.9492 119.011C53.3792 127.637 67.7167 131.479 81.9286 129.723C89.2378 128.817 96.2035 126.474 102.632 122.763C109.061 119.051 114.572 114.19 119.011 108.314C127.637 96.8832 131.478 82.546 129.724 68.3342C128.816 61.0263 126.475 54.0602 122.763 47.6309C119.052 41.2016 114.189 35.6919 108.314 31.2516C96.8833 22.6265 82.5464 18.785 68.3346 20.5391C61.0264 21.4462 54.0607 23.7886 47.6323 27.5C41.204 31.2114 35.692 36.073 31.2525 41.9485C22.6273 53.3791 18.7857 67.7161 20.54 81.9279C21.4476 89.237 23.7883 96.2031 27.4997 102.631ZM100.72 119.452C76.2415 133.584 44.9427 125.197 30.8106 100.719C16.6785 76.2419 25.0669 44.9418 49.5453 30.8091C74.0233 16.6768 105.321 25.0619 119.455 49.5413C133.588 74.0206 125.2 105.318 100.722 119.451L100.72 119.452Z" fill="#0069D6"/>
<path d="M50.6548 32.7361C74.07 19.2173 104.007 27.24 117.525 50.6547C131.044 74.0695 123.023 104.007 99.6082 117.526C76.193 131.045 46.2546 123.023 32.7358 99.6078C19.217 76.1926 27.2405 46.2544 50.6548 32.7361Z" fill="url(#paint0_linear_1_26)"/>
<path d="M94.3192 36.7936C94.0413 37.0587 93.8973 37.193 93.6122 37.453C92.8335 36.2707 92.43 35.6954 91.5985 34.5707C91.2699 35.3526 91.1019 35.7364 90.7435 36.5017C91.4146 38.2601 91.7163 39.1644 92.2496 41.0189C91.9499 41.2621 91.7986 41.3785 91.4972 41.6134C90.8094 40.3805 90.4521 39.7767 89.7104 38.5964C89.324 39.3409 89.1236 39.7071 88.7121 40.4316C89.2456 42.2258 89.4782 43.1447 89.8673 45.0265C89.5497 45.2388 89.3912 45.3439 89.0722 45.5472C88.4814 44.2712 88.1734 43.6439 87.5245 42.4155C87.0837 43.1169 86.8576 43.4642 86.3917 44.1468C86.7855 45.9686 86.9464 46.8976 87.1918 48.794C86.8619 48.9796 86.6947 49.0718 86.3609 49.2516C85.871 47.934 85.611 47.2875 85.0594 46.0154C84.5665 46.6767 84.3155 47.0032 83.8016 47.6409C84.0558 49.4812 84.1455 50.4192 84.2455 52.3227C83.9042 52.4779 83.7292 52.5555 83.3843 52.7066C82.998 51.3594 82.7862 50.6962 82.334 49.3882C81.7946 50.0031 81.5212 50.3069 80.9586 50.9019C81.0736 52.7505 81.0908 53.6898 81.0461 55.5912C80.6912 55.7229 80.5148 55.7872 80.1599 55.9071C79.8777 54.5367 79.717 53.8606 79.3685 52.5223C78.7844 53.094 78.4877 53.3712 77.8839 53.9193C77.8573 55.7678 77.8036 56.7049 77.6126 58.596C77.2515 58.6955 77.0706 58.7458 76.707 58.84C76.5294 57.4522 76.4227 56.7653 76.1761 55.4063C75.5514 55.9289 75.2342 56.1834 74.592 56.681C74.4233 58.5211 74.2998 59.4492 73.9641 61.3199C73.5954 61.3924 73.411 61.4281 73.0449 61.4923C72.9765 60.0945 72.9208 59.4009 72.778 58.0288C72.117 58.5002 71.7824 58.731 71.1059 59.1757C70.7974 60.9955 70.6009 61.9142 70.1235 63.7539C69.7505 63.7988 69.5649 63.8185 69.1928 63.8542C69.2302 62.4562 69.2324 61.7606 69.1944 60.3791C68.4999 60.7979 68.1481 61.001 67.44 61.3919C66.9921 63.1845 66.7269 64.0856 66.1072 65.8825C65.7332 65.899 65.5458 65.9038 65.1716 65.9136C65.3197 64.5207 65.3741 63.8269 65.4446 62.4479C64.7192 62.812 64.3524 62.9881 63.6125 63.326C63.0284 65.079 62.691 65.9565 61.9342 67.7045C61.5562 67.6895 61.3714 67.6817 60.9995 67.6625C61.2545 66.2841 61.3619 65.5949 61.5386 64.2248C60.7872 64.5355 60.4074 64.6803 59.6451 64.9604C58.9236 66.6641 58.5213 67.5175 57.626 69.1996C57.2523 69.1568 57.0649 69.1339 56.6935 69.0855C57.0592 67.7306 57.2189 67.053 57.5068 65.6963C56.7289 65.9484 56.3414 66.0651 55.5552 66.2845C54.7013 67.9316 54.2311 68.7485 53.2054 70.3582C52.8327 70.2872 52.6495 70.2482 52.2808 70.1737C52.7517 68.8504 52.9667 68.1864 53.3587 66.8589C52.5632 67.0473 52.1636 67.1346 51.3607 67.2953C50.3752 68.8689 49.8393 69.6467 48.682 71.1711C48.3178 71.0736 48.1353 71.0208 47.7732 70.9159C48.3489 69.6325 48.6166 68.9873 49.1141 67.6943C48.3024 67.8206 47.8948 67.8768 47.079 67.9736C45.965 69.4656 45.3661 70.1991 44.0826 71.6278C43.7234 71.5003 43.5453 71.4338 43.1888 71.3005C43.8708 70.0689 44.1917 69.4454 44.7934 68.1943C43.968 68.2573 43.5569 68.281 42.7284 68.313C41.491 69.7095 40.8308 70.3935 39.428 71.7156C39.0748 71.5582 38.9002 71.4786 38.5545 71.3169C39.3376 70.1421 39.7106 69.5494 40.4173 68.351C39.5825 68.3454 39.1639 68.3359 38.3283 68.3013C36.972 69.5953 36.253 70.2221 34.7326 71.4238C34.3907 71.2389 34.2212 71.1447 33.8843 70.9545C34.7678 69.8503 35.1912 69.2871 35.9993 68.1514C35.1579 68.0801 34.7396 68.0359 33.8986 67.93C32.4265 69.1055 31.6515 69.6717 30.0192 70.7403C29.6889 70.5254 29.5255 70.4184 29.1984 70.2004C30.1814 69.1724 30.6532 68.6495 31.558 67.5842C30.7166 67.4415 30.2946 67.3619 29.4542 67.1848C29.4172 67.2092 29.3843 67.23 29.3477 67.253C27.5675 77.5845 29.2504 88.5703 34.9009 98.3573C40.3162 107.768 48.869 114.974 59.0621 118.715C59.1 118.693 59.1358 118.677 59.1757 118.658C59.4427 117.84 59.5849 117.436 59.8815 116.635C58.5065 116.886 57.8174 117.033 56.4362 117.371C56.4103 116.979 56.3992 116.783 56.379 116.39C58.1211 115.512 58.999 115.124 60.752 114.435C61.0819 113.656 61.2543 113.27 61.6109 112.506C60.223 112.637 59.5252 112.725 58.1261 112.936C58.1298 112.549 58.1327 112.355 58.1441 111.967C59.945 111.248 60.8463 110.94 62.6461 110.415C63.0329 109.672 63.236 109.304 63.6473 108.58C62.2559 108.592 61.5555 108.618 60.1476 108.711C60.1791 108.328 60.1983 108.139 60.2388 107.755C62.0844 107.199 63.0066 106.969 64.836 106.598C65.2767 105.894 65.5056 105.55 65.9702 104.867C64.5859 104.763 63.8865 104.731 62.4787 104.705C62.5407 104.328 62.5727 104.142 62.6414 103.766C64.5209 103.37 65.4554 103.217 67.3047 102.999C67.7964 102.341 68.0487 102.016 68.5636 101.375C67.1944 101.161 66.5021 101.071 65.1037 100.927C65.1939 100.561 65.2393 100.377 65.337 100.012C67.2362 99.7726 68.1769 99.696 70.0333 99.6307C70.5743 99.0143 70.849 98.7129 71.4105 98.1191C70.0645 97.7943 69.3817 97.6481 68.0006 97.3947C68.1172 97.038 68.1787 96.8609 68.3028 96.5012C70.21 96.4182 71.1522 96.419 73.0046 96.5013C73.5885 95.9315 73.8856 95.6528 74.4905 95.1066C73.1735 94.6765 72.5071 94.4764 71.1485 94.1159C71.2923 93.77 71.3669 93.5976 71.517 93.2531C73.4216 93.3193 74.3611 93.3962 76.197 93.6228C76.8205 93.1034 77.1374 92.8484 77.7808 92.3507C76.5045 91.8183 75.8529 91.5703 74.5349 91.1001C74.7034 90.7671 74.7911 90.6013 74.9656 90.2691C76.8571 90.4864 77.7862 90.6339 79.5961 91.0041C80.2576 90.5335 80.594 90.3048 81.2732 89.8573C80.0428 89.2276 79.4151 88.9282 78.135 88.3605C78.3301 88.0404 78.4293 87.8828 78.6292 87.5648C80.496 87.9281 81.4082 88.1475 83.1854 88.6573C83.8799 88.2385 84.2317 88.0354 84.9397 87.6444C83.7628 86.9216 83.1588 86.5748 81.9294 85.9082C82.1471 85.6052 82.2573 85.4548 82.4821 85.1532C84.3138 85.6604 85.2074 85.9479 86.9384 86.592C87.6615 86.2281 88.0284 86.0532 88.767 85.7161C87.6498 84.9059 87.0754 84.5124 85.9006 83.7527C86.1417 83.4688 86.2634 83.3277 86.5098 83.0433C88.2977 83.6878 89.1649 84.0459 90.8414 84.8194C91.5918 84.5092 91.9733 84.366 92.7374 84.0849C91.6838 83.1918 91.1427 82.7569 90.0297 81.9092C90.291 81.642 90.425 81.5105 90.693 81.2455C92.4282 82.0289 93.2654 82.4491 94.8788 83.349C95.6579 83.0992 96.0448 82.9835 96.8312 82.7622C95.8486 81.7906 95.3411 81.3136 94.2953 80.384C94.5777 80.1384 94.7207 80.0152 95.0115 79.7735C96.6804 80.6843 97.4861 81.1714 99.0288 82.194C99.8256 82.0047 100.224 81.9192 101.028 81.7602C100.121 80.714 99.652 80.1986 98.679 79.1913C98.9813 78.9687 99.1354 78.857 99.4428 78.6389C101.041 79.6772 101.808 80.223 103.275 81.3628C104.084 81.2375 104.493 81.1834 105.311 81.0863C104.484 79.9733 104.055 79.4227 103.16 78.3415C103.483 78.1432 103.646 78.0436 103.971 77.8507C105.49 79.0105 106.216 79.6162 107.596 80.8672C108.422 80.8052 108.834 80.7829 109.662 80.7532C108.923 79.5795 108.533 78.9958 107.724 77.8466C108.061 77.6738 108.231 77.5886 108.574 77.4206C110.009 78.6968 110.688 79.3594 111.974 80.7167C112.808 80.7239 113.225 80.733 114.063 80.7706C113.413 79.5376 113.068 78.9269 112.345 77.7157C112.699 77.5726 112.876 77.5006 113.235 77.3599C114.575 78.75 115.207 79.4629 116.394 80.9229C117.236 80.996 117.654 81.0431 118.494 81.1493C117.938 79.8662 117.639 79.2293 117.005 77.9633C117.372 77.8469 117.559 77.7906 117.93 77.6821C119.172 79.1767 119.75 79.942 120.833 81.4969C120.94 81.5165 121.041 81.5324 121.133 81.5493C122.524 71.6492 120.753 61.2318 115.367 51.9037C109.982 42.5756 101.845 35.8334 92.5762 32.0869C92.5458 32.1771 92.5088 32.2729 92.4711 32.3729C93.2726 34.0874 93.6467 34.972 94.3192 36.7936Z" fill="white"/>
<path d="M117.08 85.5417C116.789 85.3575 116.641 85.269 116.344 85.0907C117.105 83.956 117.506 83.3938 118.347 82.2893C117.522 82.1857 117.111 82.1414 116.291 82.0693C114.899 83.304 114.244 83.9469 113.016 85.2633C112.716 85.1057 112.56 85.0284 112.255 84.8759C112.919 83.6801 113.267 83.0908 114.009 81.9199C113.188 81.8841 112.78 81.8726 111.964 81.8695C110.689 83.2138 110.095 83.9057 108.986 85.3182C108.674 85.1852 108.517 85.1194 108.202 84.9919C108.762 83.7503 109.061 83.1316 109.701 81.905C108.888 81.9354 108.482 81.9571 107.676 82.0177C106.523 83.4578 105.988 84.1943 105.002 85.6903C104.683 85.5824 104.525 85.5291 104.202 85.4271C104.656 84.1448 104.905 83.5024 105.44 82.2322C104.639 82.3252 104.239 82.3788 103.445 82.5033C102.418 84.0286 101.944 84.8065 101.086 86.3718C100.761 86.2892 100.6 86.2498 100.269 86.1717C100.622 84.8595 100.818 84.202 101.247 82.8918C100.459 83.0482 100.068 83.1321 99.289 83.3167C98.3878 84.918 97.9807 85.7279 97.2509 87.3564C96.9217 87.3002 96.7553 87.2732 96.422 87.2194C96.6685 85.8829 96.8101 85.2133 97.1366 83.8724C96.3681 84.0884 95.9852 84.2036 95.2253 84.4484C94.4573 86.1131 94.1147 86.9504 93.5152 88.6299C93.1821 88.5987 93.0159 88.5827 92.6826 88.5566C92.8217 87.2069 92.9096 86.5296 93.128 85.1699C92.3801 85.4441 92.0085 85.5872 91.273 85.8881C90.6383 87.6088 90.362 88.4683 89.8979 90.184C89.5637 90.1775 89.3966 90.1761 89.0615 90.1745C89.0966 88.8184 89.1321 88.1368 89.2425 86.765C88.5189 87.096 88.1592 87.2673 87.4498 87.624C86.951 89.385 86.743 90.2647 86.4116 92.0097C86.0768 92.03 85.9117 92.0404 85.5761 92.0649C85.5052 90.7116 85.4888 90.0285 85.4915 88.6536C84.7965 89.0395 84.453 89.2378 83.7713 89.6468C83.4109 91.4406 83.2705 92.3329 83.0758 94.0982C82.7451 94.1438 82.5803 94.1675 82.2474 94.2169C82.0724 92.8732 82.0017 92.192 81.9006 90.8228C81.2355 91.2604 80.9078 91.4841 80.2606 91.9464C80.0377 93.7598 79.9679 94.6613 79.908 96.4373C79.5801 96.5091 79.416 96.5447 79.0905 96.6206C78.8121 95.2929 78.6906 94.6219 78.4834 93.263C77.8535 93.7498 77.544 93.9986 76.9324 94.5087C76.8487 96.3372 76.8478 97.2408 76.9233 99.0199C76.6034 99.1141 76.4426 99.1639 76.1207 99.2654C75.7423 97.9616 75.57 97.3008 75.2599 95.9619C74.6684 96.4972 74.3775 96.7705 73.8064 97.3274C73.8623 99.1578 73.9298 100.061 74.1409 101.83C73.8276 101.95 73.6731 102.014 73.3597 102.142C72.8819 100.869 72.658 100.224 72.2451 98.9114C71.6951 99.493 71.4261 99.7893 70.8959 100.391C71.0929 102.217 71.2303 103.113 71.5756 104.866C71.2725 105.013 71.1206 105.086 70.8195 105.241C70.2449 104.008 69.9717 103.381 69.459 102.1C68.9548 102.726 68.7109 103.044 68.2265 103.691C68.5619 105.502 68.766 106.388 69.2463 108.115C68.9538 108.288 68.8085 108.374 68.5148 108.554C67.8475 107.367 67.528 106.759 66.9188 105.52C66.462 106.189 66.2389 106.528 65.8052 107.216C66.2785 109.002 66.5521 109.876 67.1637 111.569C66.886 111.765 66.746 111.865 66.4676 112.07C65.7097 110.934 65.344 110.352 64.6397 109.159C64.2357 109.869 64.0387 110.227 63.6604 110.956C64.271 112.71 64.6115 113.563 65.3499 115.213C65.0872 115.436 64.9558 115.548 64.6949 115.776C63.85 114.696 63.4426 114.14 62.6462 113.004C62.2966 113.749 62.1262 114.129 61.8064 114.894C62.5504 116.609 62.9549 117.438 63.8216 119.042C63.5782 119.288 63.4555 119.412 63.2138 119.666C62.2856 118.65 61.8315 118.125 60.9533 117.046C60.6617 117.83 60.5253 118.224 60.2616 119.027C60.2882 119.073 60.31 119.117 60.3346 119.165C72.5258 123.256 86.3426 122.303 98.354 115.369C110.887 108.133 118.772 95.9382 120.962 82.6934C120.856 82.6742 120.757 82.6579 120.633 82.6369C119.134 83.743 118.422 84.3281 117.08 85.5417Z" fill="white"/>
<path d="M31.7504 66.4506C31.2569 65.1492 31.0275 64.495 30.6118 63.1831C30.9527 63.1008 31.1223 63.0577 31.4569 62.9698C32.4136 64.5202 32.9283 65.288 34.0415 66.7886C34.8663 66.8929 35.278 66.9365 36.098 67.006C35.5104 65.7504 35.234 65.1171 34.721 63.8448C35.0497 63.7338 35.213 63.6777 35.5376 63.5617C36.5955 65.0284 37.1684 65.7466 38.3794 67.1533C39.1998 67.1881 39.6075 67.1971 40.425 67.2034C39.7439 65.9961 39.4239 65.3906 38.8189 64.1658C39.1336 64.0285 39.2892 63.9558 39.6 63.8127C40.7635 65.1883 41.3805 65.8626 42.6904 67.1654C43.5018 67.1346 43.9069 67.1112 44.7165 67.0495C43.9476 65.9022 43.581 65.3216 42.8863 64.1493C43.187 63.9867 43.3352 63.9055 43.6324 63.7357C44.8889 65.0164 45.5538 65.636 46.9539 66.8306C47.7551 66.7374 48.1543 66.6836 48.9473 66.5581C48.0948 65.4739 47.6883 64.9244 46.9086 63.8116C47.1919 63.6253 47.3317 63.5316 47.6114 63.3443C48.9568 64.5189 49.6634 65.086 51.145 66.1671C51.9324 66.0104 52.323 65.9247 53.1012 65.7382C52.1717 64.7255 51.7251 64.2077 50.8613 63.1583C51.1293 62.9519 51.2603 62.8473 51.5222 62.6388C52.9486 63.7051 53.6966 64.215 55.2541 65.1791C56.0214 64.962 56.4041 64.8476 57.1637 64.6035C56.1608 63.6628 55.6743 63.1828 54.7327 62.2054C54.982 61.9783 55.1053 61.8634 55.3476 61.6349C56.8501 62.5901 57.6348 63.0376 59.2579 63.8807C60.0052 63.6056 60.3759 63.463 61.1125 63.1609C60.0398 62.3029 59.5205 61.864 58.5082 60.9563C58.7359 60.7109 58.8491 60.5871 59.076 60.3404C60.6443 61.177 61.4594 61.5664 63.1414 62.2801C63.8648 61.9498 64.2228 61.7788 64.9346 61.422C63.7995 60.648 63.2451 60.2485 62.1679 59.4233C62.3778 59.1611 62.4811 59.0307 62.6851 58.7657C64.3118 59.4806 65.1534 59.8029 66.8877 60.3886C67.5829 60.0032 67.9264 59.8049 68.6079 59.3954C67.4161 58.7108 66.8322 58.3542 65.6962 57.617C65.8854 57.3391 65.9762 57.1999 66.1617 56.921C67.8373 57.5074 68.7039 57.7684 70.4795 58.2157C71.1428 57.7792 71.4708 57.5529 72.1193 57.0917C70.876 56.5014 70.2677 56.1909 69.0747 55.5415C69.2424 55.2532 69.3234 55.1055 69.4847 54.8123C71.2043 55.2692 72.0879 55.4638 73.8925 55.7694C74.5211 55.2834 74.8314 55.034 75.442 54.5221C74.1573 54.0327 73.5252 53.7673 72.2863 53.2145C72.4296 52.9114 72.4991 52.7599 72.6392 52.4567C74.3903 52.7772 75.2862 52.8983 77.1148 53.0651C77.707 52.5299 77.9976 52.255 78.5686 51.697C77.2471 51.3101 76.5964 51.0979 75.3138 50.6442C75.4352 50.3309 75.4937 50.171 75.6096 49.8578C77.3827 50.0406 78.288 50.0935 80.1275 50.113C80.6767 49.53 80.9448 49.2343 81.4735 48.6286C80.1251 48.3465 79.4588 48.1883 78.1449 47.837C78.2426 47.5116 78.2889 47.3507 78.3794 47.0288C80.1657 47.0692 81.0751 47.0482 82.9101 46.9202C83.4139 46.2938 83.6614 45.9761 84.142 45.3287C82.7743 45.1562 82.0935 45.0506 80.756 44.8035C80.8298 44.4728 80.8635 44.3105 80.9282 43.979C82.7158 43.8702 83.6221 43.7778 85.4461 43.4997C85.901 42.8302 86.1228 42.4904 86.5559 41.8021C85.1742 41.7429 84.4881 41.6922 83.1334 41.5571C83.18 41.2187 83.2014 41.05 83.2424 40.7149C85.0206 40.4608 85.9163 40.2914 87.7174 39.8585C88.1223 39.1502 88.3172 38.7895 88.6963 38.0622C87.3146 38.1212 86.6248 38.128 85.2598 38.1041C85.2794 37.7617 85.2913 37.5892 85.3046 37.251C87.0587 36.8464 87.9445 36.5991 89.7082 36.0117C90.0551 35.2648 90.2227 34.8867 90.5458 34.121C89.1693 34.2958 88.4815 34.3636 87.1172 34.4538C87.1109 34.1072 87.1079 33.9366 87.0956 33.5922C88.8172 33.0365 89.6811 32.715 91.3959 31.9662C91.4399 31.8485 91.4739 31.7538 91.5113 31.6534C78.9468 26.9298 64.4423 27.6581 51.9092 34.8941C39.8978 41.8288 32.1657 53.3203 29.614 65.9254C29.6406 65.9716 29.6677 66.012 29.6972 66.0577C30.5129 66.235 30.9258 66.3105 31.7504 66.4506Z" fill="white"/>
<path d="M117.926 77.6812C117.557 77.7884 117.368 77.846 117 77.9625C117.635 79.2284 117.932 79.8664 118.49 81.1484C117.649 81.0425 117.232 80.9951 116.39 80.922C115.203 79.4621 114.571 78.7491 113.231 77.359C112.872 77.4997 112.694 77.5708 112.34 77.7148C113.064 78.926 113.408 79.5373 114.059 80.7698C113.222 80.7331 112.804 80.7231 111.97 80.7158C110.684 79.3585 110.004 78.6962 108.569 77.4198C108.226 77.5877 108.056 77.6729 107.72 77.8457C108.529 78.9949 108.919 79.5763 109.658 80.7523C108.83 80.782 108.416 80.8051 107.592 80.8663C106.212 79.6162 105.487 79.0106 103.967 77.8498C103.641 78.0428 103.479 78.1423 103.155 78.3406C104.052 79.4237 104.481 79.9716 105.307 81.0854C104.488 81.1825 104.081 81.239 103.27 81.3619C101.804 80.2221 101.037 79.6763 99.4386 78.638C99.133 78.8551 98.9772 78.9659 98.6747 79.1904C99.6478 80.1977 100.117 80.7132 101.023 81.7593C100.221 81.9181 99.8214 82.0039 99.0245 82.1931C97.4822 81.171 96.676 80.6842 95.0072 79.7726C94.7168 80.016 94.5734 80.1376 94.2911 80.3831C95.3368 81.3127 95.8422 81.7904 96.8269 82.7614C96.0401 82.9817 95.6514 83.0997 94.8746 83.3481C93.2612 82.4483 92.4226 82.0257 90.6888 81.2447C90.4226 81.5085 90.2886 81.6401 90.0255 81.9083C91.1385 82.756 91.6795 83.1909 92.7331 84.084C91.969 84.3651 91.5889 84.5107 90.8372 84.8185C89.1598 84.0456 88.2935 83.687 86.5055 83.0425C86.2592 83.3269 86.1361 83.4687 85.8963 83.7518C87.073 84.5104 87.6455 84.905 88.7627 85.7152C88.0242 86.0524 87.6573 86.2272 86.9342 86.5911C85.2031 85.947 84.3101 85.6593 82.4779 85.1524C82.2531 85.4539 82.1429 85.6043 81.9251 85.9073C83.1545 86.5739 83.7586 86.9208 84.9355 87.6435C84.2256 88.0356 83.8738 88.2387 83.1811 88.6564C81.4039 88.1467 80.4918 87.9272 78.625 87.564C78.4245 87.881 78.3258 88.0396 78.1308 88.3596C79.4109 88.9274 80.0391 89.2276 81.2689 89.8565C80.5909 90.3027 80.2547 90.5319 79.5918 91.0032C77.7817 90.6325 76.8528 90.4855 74.9614 90.2683C74.7846 90.6018 74.6991 90.7662 74.5307 91.0992C75.8519 91.5676 76.5012 91.8169 77.7766 92.3498C77.1318 92.8452 76.8167 93.1022 76.1928 93.6219C74.3566 93.3949 73.4163 93.3166 71.5128 93.2522C71.3627 93.5968 71.288 93.7692 71.1442 94.115C72.501 94.4766 73.1674 94.6767 74.4862 95.1058C73.879 95.6533 73.5842 95.9306 73.0003 96.5004C71.148 96.4182 70.2057 96.4174 68.2986 96.5003C68.1737 96.8587 68.1158 97.0367 67.9963 97.3938C69.3775 97.6472 70.0602 97.7935 71.4062 98.1182C70.8448 98.712 70.5691 99.0139 70.0291 99.6298C68.1727 99.6952 67.232 99.7717 65.3328 100.011C65.2352 100.375 65.1897 100.56 65.0994 100.926C66.4988 101.069 67.1911 101.159 68.5594 101.375C68.0442 102.014 67.7922 102.34 67.3005 102.998C65.4511 103.217 64.5166 103.369 62.6371 103.765C62.5685 104.141 62.5364 104.328 62.4745 104.704C63.8823 104.73 64.5816 104.762 65.966 104.866C65.499 105.55 65.2724 105.893 64.8317 106.597C63.0023 106.968 62.0812 107.2 60.2345 107.754C60.1941 108.138 60.1749 108.327 60.1434 108.71C61.551 108.617 62.2516 108.592 63.6431 108.579C63.2299 109.304 63.0294 109.672 62.6419 110.414C60.8428 110.941 59.9402 111.25 58.1399 111.966C58.1285 112.354 58.1256 112.548 58.1218 112.935C59.5199 112.722 60.2188 112.636 61.6067 112.505C61.2482 113.27 61.0776 113.655 60.7478 114.434C58.9942 115.122 58.1169 115.511 56.3748 116.39C56.395 116.782 56.4065 116.978 56.432 117.37C57.8132 117.032 58.5022 116.886 59.8772 116.635C59.5804 117.435 59.438 117.84 59.1715 118.657C59.1316 118.676 59.0965 118.693 59.0579 118.714C59.4816 118.87 59.9085 119.014 60.3372 119.156C60.3105 119.11 60.2893 119.067 60.2641 119.018C60.5256 118.217 60.6643 117.822 60.9559 117.038C61.8368 118.117 62.2881 118.642 63.2163 119.658C63.4581 119.404 63.5808 119.279 63.8242 119.033C62.9593 117.429 62.5525 116.601 61.809 114.885C62.131 114.119 62.2992 113.74 62.6487 112.995C63.4429 114.133 63.8526 114.688 64.6974 115.767C64.9578 115.538 65.0892 115.427 65.3524 115.204C64.6107 113.554 64.2748 112.698 63.663 110.948C64.043 110.22 64.2391 109.862 64.6423 109.151C65.3473 110.344 65.7123 110.925 66.4702 112.061C66.7467 111.858 66.8872 111.759 67.1662 111.561C66.557 109.866 66.2813 108.994 65.8077 107.208C66.2404 106.521 66.4631 106.182 66.9214 105.511C67.5305 106.751 67.85 107.359 68.5174 108.546C68.8088 108.367 68.9541 108.281 69.2489 108.107C68.7685 106.379 68.5644 105.494 68.2291 103.682C68.7104 103.035 68.9574 102.718 69.4615 102.092C69.9743 103.372 70.2474 104 70.822 105.233C71.1237 105.078 71.2756 105.006 71.5781 104.858C71.2328 103.104 71.095 102.209 70.8985 100.383C71.4286 99.7808 71.6977 99.4845 72.2477 98.9029C72.6606 100.215 72.8854 100.86 73.3623 102.133C73.6756 102.005 73.8312 101.943 74.1435 101.822C73.9324 100.052 73.8656 99.1507 73.809 97.3189C74.38 96.762 74.671 96.4888 75.2625 95.9534C75.5749 97.291 75.7469 97.9513 76.1233 99.2569C76.4451 99.1554 76.606 99.1056 76.9258 99.0114C76.8499 97.2326 76.8536 96.3274 76.935 94.5002C77.5466 93.9901 77.8558 93.7409 78.486 93.2545C78.6926 94.6125 78.8147 95.2845 79.0931 96.6122C79.4186 96.5363 79.5827 96.5006 79.9106 96.4289C79.9705 94.6529 80.0403 93.7514 80.2632 91.9379C80.9104 91.4756 81.238 91.2519 81.9032 90.8143C82.0052 92.183 82.075 92.8647 82.25 94.2084C82.5828 94.1591 82.7476 94.1353 83.0783 94.0897C83.2731 92.3244 83.4142 91.4335 83.7739 89.6383C84.4558 89.2298 84.7993 89.0315 85.4941 88.6451C85.4913 90.02 85.5077 90.7031 85.5787 92.0564C85.9142 92.0319 86.0793 92.0215 86.4142 92.0012C86.7442 90.257 86.9522 89.3773 87.4523 87.6155C88.1618 87.2588 88.5215 87.0875 89.2451 86.7565C89.1347 88.1283 89.0994 88.8104 89.064 90.166C89.3989 90.1672 89.566 90.1686 89.9005 90.1755C90.3654 88.4593 90.6401 87.599 91.2756 85.8796C92.0108 85.5783 92.3827 85.4356 93.1305 85.1614C92.912 86.5187 92.8252 87.1979 92.6851 88.5481C93.0192 88.5756 93.1855 88.5916 93.5178 88.6214C94.115 86.9433 94.4589 86.1082 95.2279 84.4399C95.9878 84.1951 96.3706 84.0799 97.1391 83.864C96.8145 85.2037 96.6729 85.8733 96.4246 87.2109C96.7579 87.2647 96.9227 87.289 97.2534 87.3479C97.9814 85.7205 98.3885 84.9105 99.2916 83.3082C100.071 83.1236 100.461 83.0398 101.249 82.8833C100.82 84.1935 100.624 84.8492 100.271 86.1632C100.602 86.2413 100.764 86.2808 101.088 86.3633C101.947 84.7975 102.42 84.0204 103.448 82.4948C104.242 82.3703 104.641 82.3157 105.442 82.2237C104.908 83.4939 104.659 84.1363 104.204 85.4187C104.528 85.5206 104.685 85.572 105.004 85.6818C105.992 84.1881 106.525 83.4494 107.678 82.0092C108.485 81.9486 108.89 81.9255 109.703 81.8965C109.064 83.1231 108.764 83.7418 108.205 84.9834C108.519 85.1095 108.677 85.1767 108.988 85.3097C110.098 83.8972 110.692 83.2053 111.966 81.861C112.783 81.8664 113.193 81.8774 114.012 81.9114C113.271 83.0812 112.919 83.673 112.258 84.8674C112.563 85.0199 112.719 85.0972 113.019 85.2548C114.246 83.9384 114.903 83.295 116.294 82.0608C117.114 82.1334 117.525 82.1772 118.35 82.2808C117.508 83.3822 117.108 83.9472 116.346 85.0823C116.643 85.2605 116.79 85.3499 117.083 85.5332C118.424 84.3196 119.135 83.7326 120.641 82.6219C120.765 82.6427 120.863 82.6592 120.97 82.6784C121.031 82.3007 121.08 81.9204 121.131 81.5388C121.039 81.5219 120.937 81.506 120.83 81.4864C119.746 79.9412 119.168 79.1758 117.926 77.6812Z" fill="url(#paint1_linear_1_26)"/>
<path d="M91.39 31.9707C89.673 32.7157 88.8112 33.0409 87.0896 33.5966C87.1033 33.9402 87.105 34.1116 87.1113 34.4582C88.4751 34.3682 89.162 34.301 90.5398 34.1254C90.2168 34.8911 90.0497 35.2702 89.7023 36.0161C87.9368 36.6045 87.0528 36.8508 85.2987 37.2553C85.2853 37.5936 85.2735 37.7661 85.2539 38.1085C86.6212 38.1311 87.3061 38.1253 88.6904 38.0666C88.3112 38.7958 88.1171 39.1559 87.7115 39.8629C85.9104 40.2958 85.0147 40.4652 83.2365 40.7193C83.1955 41.0544 83.1741 41.2231 83.1275 41.5615C84.4822 41.6966 85.1683 41.7473 86.5499 41.8065C86.1169 42.4948 85.8951 42.8346 85.4402 43.5041C83.6159 43.7818 82.7104 43.8755 80.9222 43.9833C80.8563 44.3126 80.8239 44.4772 80.7501 44.8079C82.0876 45.055 82.7684 45.1606 84.1361 45.3331C83.6552 45.9801 83.408 46.2982 82.9041 46.9246C81.0697 47.0524 80.1589 47.0741 78.3735 47.0332C78.2829 47.3551 78.2367 47.516 78.139 47.8414C79.4521 48.1913 80.1192 48.3509 81.4676 48.633C80.9389 49.2387 80.6708 49.5344 80.1216 50.1174C78.2839 50.0969 77.3786 50.044 75.6037 49.8622C75.4878 50.1754 75.4293 50.3353 75.3079 50.6486C76.5886 51.1033 77.2393 51.3155 78.5627 51.7013C77.9917 52.2594 77.701 52.5343 77.1088 53.0695C75.2834 52.9027 74.3867 52.7803 72.6333 52.4611C72.4932 52.7643 72.4237 52.9158 72.2804 53.2189C73.5183 53.7722 74.1496 54.0362 75.4361 54.5265C74.8255 55.0384 74.5152 55.2878 73.8866 55.7738C72.0807 55.4659 71.1974 55.2741 69.4788 54.8167C69.3164 55.1081 69.2355 55.2557 69.0687 55.5459C70.262 56.1958 70.8701 56.5059 72.1133 57.0962C71.4649 57.5573 71.1366 57.7832 70.4736 58.2201C68.6994 57.7721 67.8327 57.511 66.1558 56.9254C65.9702 57.2043 65.8795 57.3435 65.6903 57.6214C66.8263 58.3586 67.4101 58.7152 68.6019 59.3998C67.9205 59.8093 67.577 60.0076 66.8817 60.393C65.1486 59.8092 64.3058 59.485 62.6792 58.7701C62.4751 59.0351 62.3719 59.1655 62.1619 59.4277C63.2392 60.2529 63.7927 60.6529 64.9287 61.4264C64.2169 61.7832 63.8589 61.9542 63.1354 62.2845C61.4535 61.5708 60.6383 61.1814 59.0701 60.3448C58.8432 60.5915 58.73 60.7153 58.5023 60.9607C59.5135 61.8666 60.0333 62.3063 61.1066 63.1653C60.37 63.4674 59.9993 63.61 59.252 63.8851C57.6266 63.0434 56.8447 62.5942 55.3417 61.6393C55.0994 61.8678 54.9761 61.9827 54.7268 62.2098C55.6661 63.1885 56.1525 63.6685 57.1578 64.6079C56.3982 64.852 56.0155 64.9665 55.2482 65.1835C53.6904 64.219 52.9426 63.7095 51.5163 62.6432C51.2544 62.8517 51.1233 62.9563 50.8553 63.1627C51.7182 64.2127 52.1658 64.7299 53.0952 65.7426C52.3171 65.9291 51.9265 66.0148 51.1391 66.1715C49.6566 65.0878 48.9495 64.521 47.6054 63.3487C47.3266 63.5374 47.1867 63.6311 46.9026 63.816C47.6824 64.9288 48.0889 65.4783 48.9414 66.5625C48.1484 66.688 47.7512 66.74 46.9479 66.8351C45.5478 65.6404 44.883 65.0208 43.6265 63.7401C43.3324 63.9099 43.1834 63.9898 42.8804 64.1537C43.575 65.326 43.9416 65.9066 44.7105 67.0539C43.9024 67.1148 43.4975 67.1386 42.6845 67.1698C41.3746 65.867 40.7553 65.1941 39.5941 63.8172C39.2852 63.9592 39.1295 64.0318 38.813 64.1702C39.4179 65.395 39.7394 66.0029 40.419 67.2078C39.6024 67.2029 39.1937 67.1944 38.3735 67.1577C37.1594 65.751 36.5911 65.0301 35.5317 63.5661C35.2071 63.6821 35.0438 63.7382 34.7151 63.8492C35.2281 65.1215 35.5068 65.7534 36.0921 67.0104C35.2721 66.9409 34.858 66.8987 34.0356 66.793C32.9228 65.2921 32.4058 64.5257 31.451 62.9742C31.1164 63.0621 30.9468 63.1052 30.6059 63.1875C31.0216 64.4994 31.2494 65.1551 31.7444 66.455C30.9197 66.3156 30.5107 66.2372 29.684 66.0645C29.6573 66.0183 29.6295 65.9765 29.6008 65.9322C29.5107 66.3732 29.4207 66.8154 29.3442 67.2597C29.3816 67.2381 29.4137 67.2159 29.4507 67.1915C30.2915 67.3684 30.7128 67.4477 31.5544 67.5909C30.6497 68.6562 30.1778 69.1791 29.1948 70.2071C29.5215 70.4254 29.6853 70.5321 30.0157 70.747C31.6493 69.6807 32.4224 69.1113 33.895 67.9367C34.7361 68.0426 35.1562 68.0857 35.9957 68.1581C35.1876 69.2938 34.7643 69.857 33.8807 70.9612C34.2177 71.1514 34.3872 71.2456 34.729 71.4305C36.2519 70.2299 36.9696 69.6038 38.3248 68.308C39.1607 68.3431 39.5808 68.3511 40.4138 68.3577C39.7071 69.5561 39.3348 70.1502 38.5509 71.3236C38.8967 71.4853 39.0713 71.5649 39.4244 71.7223C40.8278 70.4011 41.4874 69.7162 42.7249 68.3197C43.5534 68.2877 43.9667 68.2626 44.7899 68.201C44.1881 69.4521 43.8673 70.0757 43.1853 71.3072C43.5418 71.4406 43.7199 71.507 44.0791 71.6345C45.3626 70.2059 45.9615 69.4723 47.0754 67.9803C47.8912 67.8835 48.2992 67.8278 49.1105 67.701C48.6121 68.9946 48.3444 69.6397 47.7696 70.9226C48.1318 71.0275 48.3128 71.0787 48.6784 71.1779C49.8358 69.6534 50.3716 68.8756 51.3572 67.302C52.161 67.1407 52.5597 67.054 53.3551 66.8656C52.9631 68.1932 52.7481 68.8571 52.2773 70.1804C52.6445 70.2577 52.8286 70.293 53.2019 70.3649C54.2276 68.7552 54.6978 67.9383 55.5516 66.2912C56.3379 66.0718 56.7277 65.9538 57.5032 65.7031C57.2173 67.0587 57.0575 67.7363 56.6899 69.0922C57.0614 69.1406 57.2488 69.1635 57.6225 69.2063C58.5159 67.521 58.9206 66.6717 59.6415 64.9671C60.4033 64.6873 60.7826 64.5403 61.5351 64.2315C61.3575 65.6021 61.2472 66.2918 60.996 67.6692C61.3678 67.6884 61.555 67.6949 61.9307 67.7113C62.6875 65.9632 63.0246 65.0853 63.6089 63.3327C64.3475 62.9956 64.7135 62.8181 65.4411 62.4546C65.3705 63.8336 65.3162 64.5274 65.1681 65.9203C65.5423 65.9105 65.7289 65.9043 66.1037 65.8892C66.7233 64.0923 66.9886 63.1913 67.4365 61.3986C68.1456 61.0052 68.4974 60.8021 69.1909 60.3858C69.2289 61.7673 69.2267 62.4629 69.1893 63.8609C69.5614 63.8252 69.747 63.8055 70.12 63.7606C70.5969 61.9212 70.7939 61.0022 71.1024 59.1824C71.7788 58.7377 72.1135 58.507 72.7744 58.0355C72.9172 59.4076 72.9711 60.1023 73.0413 61.4991C73.4088 61.434 73.5918 61.3991 73.9605 61.3266C74.2963 59.456 74.4207 58.5273 74.5885 56.6877C75.2307 56.1901 75.5479 55.9356 76.1726 55.413C76.4192 56.772 76.5259 57.459 76.7035 58.8467C77.0653 58.7536 77.2461 58.7033 77.6091 58.6027C77.8001 56.7116 77.8537 55.7745 77.8803 53.926C78.4865 53.3766 78.7798 53.0989 79.3649 52.529C79.7151 53.8658 79.8742 54.5434 80.1564 55.9138C80.5112 55.7939 80.6884 55.7298 81.0426 55.5979C81.0885 53.6976 81.0709 52.7586 80.9551 50.9086C81.5176 50.3136 81.7905 50.0101 82.3304 49.3949C82.7827 50.7029 82.9945 51.3661 83.3808 52.7133C83.7248 52.5628 83.8988 52.4857 84.2419 52.3294C84.142 50.4259 84.0523 49.4879 83.798 47.6476C84.312 47.0099 84.563 46.6834 85.0559 46.0221C85.6061 47.295 85.8672 47.9402 86.3574 49.2583C86.6912 49.0785 86.8584 48.9863 87.1883 48.8007C86.9428 46.9043 86.782 45.9753 86.3882 44.1535C86.8554 43.4701 87.0801 43.1236 87.521 42.4222C88.1678 43.6492 88.4778 44.2779 89.0686 45.5539C89.3866 45.3487 89.5451 45.2437 89.8638 45.0332C89.4752 43.1511 89.2421 42.2325 88.7086 40.4383C89.1201 39.7139 89.3199 39.3467 89.7069 38.6031C90.4495 39.7828 90.8058 40.3872 91.4936 41.6201C91.7948 41.3847 91.9464 41.2688 92.2461 41.0256C91.7128 39.1711 91.4111 38.2668 90.74 36.5084C91.0984 35.7432 91.2669 35.359 91.5949 34.5774C92.4283 35.7011 92.83 36.2774 93.6086 37.4597C93.8937 37.1997 94.0355 37.0667 94.3157 36.8003C93.6421 34.9769 93.268 34.0923 92.4621 32.3766C92.4998 32.2766 92.5368 32.1808 92.5672 32.0906C92.2125 31.9464 91.8585 31.798 91.4996 31.6605C91.468 31.7582 91.434 31.8529 91.39 31.9707Z" fill="url(#paint2_linear_1_26)"/>
<path d="M71.4359 65.3032L82.4648 84.4059L83.673 83.7084L72.6441 64.6057L71.4359 65.3032Z" fill="white"/>
<path d="M162.639 99.1317C163.451 99.1317 163.92 98.6942 163.92 97.8505V67.6005C163.92 66.3505 164.92 66.0692 165.389 67.288L177.951 98.1317C178.232 98.788 178.764 99.1317 179.451 99.1317H182.139C182.826 99.1317 183.389 98.788 183.639 98.1317L196.295 67.3505C196.764 66.1317 197.764 66.3817 197.764 67.6317V97.8505C197.764 98.6942 198.201 99.1317 199.045 99.1317H205.795C206.607 99.1317 207.076 98.6942 207.076 97.8505V52.413C207.076 51.5692 206.607 51.1317 205.795 51.1317H195.17C194.482 51.1317 193.951 51.4755 193.67 52.1317L181.639 80.8192C181.201 81.8817 180.389 81.8817 179.982 80.8192L168.014 52.1317C167.764 51.4755 167.232 51.1317 166.514 51.1317H155.857C155.045 51.1317 154.576 51.5692 154.576 52.413V97.8505C154.576 98.6942 155.045 99.1317 155.857 99.1317H162.639ZM226.764 114.038C227.42 114.038 227.889 113.694 228.17 113.1L246.795 67.4442C247.139 66.6317 246.732 66.038 245.857 66.038H238.826C238.17 66.038 237.701 66.3817 237.482 67.038L230.764 85.538C230.42 86.6005 229.576 86.6317 229.232 85.538L222.482 67.038C222.264 66.3817 221.764 66.038 221.076 66.038H213.951C213.076 66.038 212.67 66.6317 213.014 67.4442L224.826 96.3192C225.045 96.8817 225.045 97.3505 224.826 97.913L218.67 112.663C218.357 113.507 218.732 114.038 219.607 114.038H226.764ZM260.639 99.1317C261.451 99.1317 261.92 98.6942 261.92 97.8505V67.788C261.92 66.6005 262.764 66.3192 263.514 67.2567L288.701 98.3817C289.107 98.913 289.607 99.1317 290.264 99.1317H296.826C297.639 99.1317 298.076 98.6942 298.076 97.8505V52.413C298.076 51.5692 297.639 51.1317 296.826 51.1317H290.17C289.357 51.1317 288.889 51.5692 288.889 52.413V82.3817C288.889 83.5692 288.045 83.913 287.295 82.9755L262.076 51.8817C261.67 51.3505 261.139 51.1317 260.514 51.1317H253.982C253.17 51.1317 252.701 51.5692 252.701 52.413V97.8505C252.701 98.6942 253.17 99.1317 253.982 99.1317H260.639ZM323.326 99.7567C330.482 99.7567 335.732 96.538 338.701 92.3505C339.107 91.8192 338.826 91.288 338.076 90.9442L332.264 88.4442C331.545 88.1317 331.045 88.3192 330.607 88.9755C328.951 91.163 326.264 92.4755 323.295 92.4755C318.951 92.4755 315.326 89.7567 314.264 85.6942C314.045 84.8817 314.514 84.3505 315.326 84.3505H340.451C341.201 84.3505 341.639 84.038 341.67 83.288C341.732 82.7567 341.701 82.0692 341.607 81.3817C341.045 72.0067 333.482 65.413 323.295 65.413C312.639 65.413 304.857 72.6317 304.857 82.6005C304.857 92.163 312.076 99.7567 323.326 99.7567ZM315.92 78.3505C315.045 78.3505 314.607 77.7567 315.045 76.9442C316.607 74.0067 319.545 72.2567 323.295 72.2567C327.232 72.2567 330.076 74.288 331.576 77.038C331.982 77.788 331.482 78.3505 330.576 78.3505H315.92ZM353.545 99.1317C354.139 99.1317 354.607 98.8817 354.982 98.413L361.514 90.0067C362.045 89.288 362.701 89.288 363.232 90.0067L369.701 98.413C370.107 98.8817 370.576 99.1317 371.17 99.1317H379.701C380.701 99.1317 381.014 98.4755 380.389 97.6317L368.67 83.3817C368.201 82.788 368.201 82.2567 368.67 81.663L380.389 67.538C381.045 66.6942 380.67 66.038 379.67 66.038H371.201C370.576 66.038 370.107 66.288 369.732 66.788L363.201 75.1317C362.67 75.8192 361.982 75.788 361.482 75.1317L354.982 66.788C354.607 66.288 354.139 66.038 353.514 66.038H345.045C344.045 66.038 343.639 66.6942 344.326 67.538L356.045 81.663C356.514 82.2567 356.514 82.788 356.045 83.3817L344.326 97.6317C343.701 98.4755 344.014 99.1317 345.014 99.1317H353.545ZM404.576 99.1317C405.326 99.1317 405.764 98.6942 405.764 97.913V92.8505C405.764 92.1005 405.326 91.663 404.576 91.663H402.389C400.014 91.663 398.326 90.2255 398.326 87.1942V74.2255C398.326 73.4755 398.764 73.0067 399.514 73.0067H404.701C405.451 73.0067 405.889 72.5692 405.889 71.8192V67.2567C405.889 66.5067 405.451 66.038 404.701 66.038H399.514C398.764 66.038 398.326 65.6005 398.326 64.8505V58.1005C398.326 57.3505 397.857 56.8817 397.107 56.8817H390.607C389.857 56.8817 389.42 57.3505 389.42 58.1005V64.8505C389.42 65.6005 388.951 66.038 388.201 66.038H385.389C384.639 66.038 384.17 66.5067 384.17 67.2567V71.8192C384.17 72.5692 384.639 73.0067 385.389 73.0067H388.201C388.951 73.0067 389.42 73.4755 389.42 74.2255V88.8192C389.42 95.4442 393.514 99.1317 400.17 99.1317H404.576ZM420.514 99.1317C421.326 99.1317 421.795 98.6942 421.795 97.8505V82.9755C421.795 82.1317 422.232 81.6942 423.076 81.6942H433.014C442.607 81.6942 448.795 75.163 448.795 66.538C448.795 58.038 442.607 51.1317 433.014 51.1317H413.732C412.92 51.1317 412.451 51.5692 412.451 52.413V97.8505C412.451 98.6942 412.92 99.1317 413.732 99.1317H420.514ZM423.076 73.8192C422.232 73.8192 421.795 73.3817 421.795 72.538V60.2567C421.795 59.4442 422.232 58.9755 423.076 58.9755H431.295C436.67 58.9755 439.482 62.038 439.482 66.4442C439.482 71.038 436.67 73.8192 431.295 73.8192H423.076ZM463.357 52.3505C463.357 51.5692 462.889 51.1317 462.139 51.1317H455.639C454.889 51.1317 454.451 51.5692 454.451 52.3505V97.913C454.451 98.6942 454.889 99.1317 455.639 99.1317H462.139C462.889 99.1317 463.357 98.6942 463.357 97.913V52.3505ZM486.514 99.7567C489.982 99.7567 493.232 98.7255 495.795 96.663C496.607 95.9755 497.17 96.2567 497.17 97.288V97.913C497.17 98.6942 497.639 99.1317 498.389 99.1317H504.889C505.639 99.1317 506.076 98.6942 506.076 97.913V67.2567C506.076 66.5067 505.639 66.038 504.889 66.038H498.389C497.639 66.038 497.17 66.5067 497.17 67.2567V68.038C497.17 68.9755 496.576 69.163 495.795 68.538C493.201 66.4442 490.014 65.413 486.514 65.413C476.982 65.413 469.607 72.8817 469.607 82.5692C469.607 92.2567 476.982 99.7567 486.514 99.7567ZM488.045 92.1317C482.764 92.1317 478.514 88.2255 478.514 82.5692C478.514 76.9755 482.764 73.038 488.045 73.038C493.326 73.038 497.576 77.038 497.576 82.5692C497.576 88.1317 493.326 92.1317 488.045 92.1317ZM525.264 114.038C525.92 114.038 526.389 113.694 526.67 113.1L545.295 67.4442C545.639 66.6317 545.232 66.038 544.357 66.038H537.326C536.67 66.038 536.201 66.3817 535.982 67.038L529.264 85.538C528.92 86.6005 528.076 86.6317 527.732 85.538L520.982 67.038C520.764 66.3817 520.264 66.038 519.576 66.038H512.451C511.576 66.038 511.17 66.6317 511.514 67.4442L523.326 96.3192C523.545 96.8817 523.545 97.3505 523.326 97.913L517.17 112.663C516.857 113.507 517.232 114.038 518.107 114.038H525.264Z" fill="#0069D6"/>
<path d="M565.9 70.6317C569.1 70.6317 571.67 68.3622 571.67 64.8075C571.67 62.62 570.576 60.7469 568.648 59.8173C568.279 59.6532 568.252 59.4344 568.566 59.1473C569.578 58.2313 570.166 56.8778 570.166 55.2372C570.166 51.9286 567.555 49.6317 564.342 49.6317H558.039C557.67 49.6317 557.479 49.8231 557.479 50.1923V70.0712C557.479 70.4403 557.67 70.6317 558.039 70.6317H565.9ZM560.418 59.0106C560.049 59.0106 559.857 58.8192 559.857 58.4501V52.4344C559.857 52.0653 560.049 51.8739 560.418 51.8739H564.082C566.721 51.8739 567.773 53.4052 567.773 55.4286C567.773 57.4657 566.133 59.0106 564.082 59.0106H560.418ZM560.418 68.3895C560.049 68.3895 559.857 68.1981 559.857 67.829V61.8134C559.857 61.4442 560.049 61.2528 560.418 61.2528H565.312C568.033 61.2528 569.291 62.702 569.291 64.7255C569.291 66.7352 568.033 68.3895 565.312 68.3895H560.418ZM581.855 70.9052C584.344 70.9052 586.559 69.7294 588.021 67.7743C588.24 67.4735 588.158 67.1864 587.789 67.0223L586.791 66.5985C586.477 66.4618 586.23 66.5438 586.025 66.8173C585.082 67.993 583.482 68.786 581.855 68.786C579.107 68.786 576.906 66.7626 576.537 64.2196C576.482 63.8505 576.701 63.6317 577.07 63.6317H588.855C589.225 63.6317 589.416 63.5223 589.416 63.1532C589.416 62.9344 589.389 62.5106 589.307 62.0868C588.691 58.5594 585.615 55.8798 581.828 55.8798C577.631 55.8798 574.295 59.2294 574.295 63.3856C574.295 67.5555 577.604 70.9052 581.855 70.9052ZM577.467 61.6766C577.043 61.6766 576.852 61.3895 577.043 61.0341C577.904 59.2294 579.695 57.9989 581.855 57.9989C584.234 57.9989 585.971 59.4618 586.764 61.1434C586.9 61.4442 586.668 61.6766 586.258 61.6766H577.467ZM599 70.6317C599.355 70.6317 599.561 70.4403 599.561 70.0712V69.2372C599.561 68.868 599.355 68.6766 599 68.6766H597.906C596.621 68.6766 595.719 67.829 595.719 66.3524V58.6825C595.719 58.3134 595.924 58.1219 596.279 58.1219H599C599.355 58.1219 599.561 57.9169 599.561 57.5614V56.7137C599.561 56.3583 599.355 56.1532 599 56.1532H596.279C595.924 56.1532 595.719 55.9618 595.719 55.5927V52.7079C595.719 52.3524 595.527 52.1473 595.158 52.1473H594.092C593.736 52.1473 593.531 52.3524 593.531 52.7079V55.5927C593.531 55.9618 593.34 56.1532 592.984 56.1532H591.658C591.303 56.1532 591.098 56.3583 591.098 56.7137V57.5614C591.098 57.9169 591.303 58.1219 591.658 58.1219H592.984C593.34 58.1219 593.531 58.3134 593.531 58.6825V66.6532C593.531 69.2645 595.24 70.6317 597.66 70.6317H599ZM608.926 70.9052C610.771 70.9052 612.453 70.2626 613.711 69.1825C614.053 68.868 614.299 69.0048 614.299 69.4833V70.0712C614.299 70.4403 614.504 70.6317 614.859 70.6317H615.926C616.295 70.6317 616.486 70.4403 616.486 70.0712V56.7137C616.486 56.3583 616.295 56.1532 615.926 56.1532H614.859C614.504 56.1532 614.299 56.3583 614.299 56.7137V57.3016C614.299 57.7802 614.025 57.8895 613.656 57.5887C612.398 56.5223 610.744 55.8798 608.926 55.8798C604.729 55.8798 601.365 59.2294 601.365 63.3856C601.365 67.5555 604.729 70.9052 608.926 70.9052ZM608.926 68.786C605.959 68.786 603.553 66.3798 603.553 63.3856C603.553 60.4052 605.959 57.9989 608.926 57.9989C611.92 57.9989 614.299 60.4052 614.299 63.3856C614.299 66.3798 611.92 68.786 608.926 68.786Z" fill="#0069D6"/>
<defs>
<linearGradient id="paint0_linear_1_26" x1="10.2701" y1="136.037" x2="125.05" y2="58.1206" gradientUnits="userSpaceOnUse">
<stop stop-color="#F47937"/>
<stop offset="1" stop-color="#F05523"/>
</linearGradient>
<linearGradient id="paint1_linear_1_26" x1="10.2701" y1="136.037" x2="125.05" y2="58.1206" gradientUnits="userSpaceOnUse">
<stop stop-color="#F47937"/>
<stop offset="1" stop-color="#F05523"/>
</linearGradient>
<linearGradient id="paint2_linear_1_26" x1="10.2701" y1="136.037" x2="125.05" y2="58.1206" gradientUnits="userSpaceOnUse">
<stop stop-color="#F47937"/>
<stop offset="1" stop-color="#F05523"/>
</linearGradient>
</defs>
</svg>
